<mxfile host="app.diagrams.net" modified="2022-07-15T15:31:35.862Z" agent="5.0 (Windows NT 10.0; Win64; x64) AppleWebKit/537.36 (KHTML, like Gecko) Chrome/103.0.5060.114 Safari/537.36 Edg/103.0.1264.49" etag="lj5REVxSGzasruovxABo" version="19.0.0" type="github">
  <diagram id="bSVvYw0BvjZGnwzIAJTQ" name="Page-1">
    <mxGraphModel dx="1565" dy="653" grid="0" gridSize="10" guides="1" tooltips="1" connect="1" arrows="1" fold="1" page="0" pageScale="1" pageWidth="827" pageHeight="1169" math="0" shadow="0">
      <root>
        <mxCell id="0" />
        <mxCell id="1" parent="0" />
        <mxCell id="oXrB27OB3NijfT-scLyy-3" value="&lt;font style=&quot;font-size: 20px&quot;&gt;新毒株&lt;/font&gt;" style="ellipse;whiteSpace=wrap;html=1;" parent="1" vertex="1">
          <mxGeometry x="177" y="92" width="120" height="80" as="geometry" />
        </mxCell>
        <mxCell id="oXrB27OB3NijfT-scLyy-4" value="&lt;font style=&quot;font-size: 20px&quot;&gt;科技发展&lt;/font&gt;" style="ellipse;whiteSpace=wrap;html=1;" parent="1" vertex="1">
          <mxGeometry x="354" y="92" width="120" height="80" as="geometry" />
        </mxCell>
        <mxCell id="oXrB27OB3NijfT-scLyy-5" value="&lt;font style=&quot;font-size: 20px&quot;&gt;防疫意识&lt;/font&gt;" style="ellipse;whiteSpace=wrap;html=1;" parent="1" vertex="1">
          <mxGeometry x="530" y="92" width="120" height="80" as="geometry" />
        </mxCell>
        <mxCell id="oXrB27OB3NijfT-scLyy-6" value="&lt;font style=&quot;font-size: 21px&quot;&gt;防疫措施&lt;/font&gt;" style="ellipse;whiteSpace=wrap;html=1;" parent="1" vertex="1">
          <mxGeometry x="474" y="243" width="120" height="80" as="geometry" />
        </mxCell>
        <mxCell id="oXrB27OB3NijfT-scLyy-7" value="&lt;font style=&quot;font-size: 16px&quot;&gt;公共场所开放度&lt;/font&gt;" style="ellipse;whiteSpace=wrap;html=1;" parent="1" vertex="1">
          <mxGeometry x="234" y="243" width="120" height="80" as="geometry" />
        </mxCell>
        <mxCell id="oXrB27OB3NijfT-scLyy-8" value="&lt;font style=&quot;font-size: 20px&quot;&gt;医院门诊&lt;/font&gt;" style="ellipse;whiteSpace=wrap;html=1;" parent="1" vertex="1">
          <mxGeometry x="474" y="390" width="120" height="80" as="geometry" />
        </mxCell>
        <mxCell id="oXrB27OB3NijfT-scLyy-9" value="&lt;font style=&quot;font-size: 20px&quot;&gt;居家办公&lt;/font&gt;" style="ellipse;whiteSpace=wrap;html=1;" parent="1" vertex="1">
          <mxGeometry x="234" y="390" width="120" height="80" as="geometry" />
        </mxCell>
        <mxCell id="oXrB27OB3NijfT-scLyy-17" value="&lt;font style=&quot;font-size: 20px&quot;&gt;人口流动&lt;/font&gt;" style="ellipse;whiteSpace=wrap;html=1;" parent="1" vertex="1">
          <mxGeometry x="-42" y="540" width="120" height="80" as="geometry" />
        </mxCell>
        <mxCell id="oXrB27OB3NijfT-scLyy-18" value="&lt;font style=&quot;font-size: 20px&quot;&gt;国家政策&lt;/font&gt;" style="ellipse;whiteSpace=wrap;html=1;" parent="1" vertex="1">
          <mxGeometry x="760" y="540" width="120" height="80" as="geometry" />
        </mxCell>
        <mxCell id="oXrB27OB3NijfT-scLyy-19" value="&lt;font style=&quot;font-size: 19px&quot;&gt;疫苗接种&lt;/font&gt;" style="ellipse;whiteSpace=wrap;html=1;" parent="1" vertex="1">
          <mxGeometry x="114" y="540" width="120" height="80" as="geometry" />
        </mxCell>
        <mxCell id="oXrB27OB3NijfT-scLyy-20" value="&lt;font style=&quot;font-size: 20px&quot;&gt;媒体报道&lt;/font&gt;" style="ellipse;whiteSpace=wrap;html=1;" parent="1" vertex="1">
          <mxGeometry x="280" y="540" width="120" height="80" as="geometry" />
        </mxCell>
        <mxCell id="oXrB27OB3NijfT-scLyy-21" value="&lt;font style=&quot;font-size: 21px&quot;&gt;失业率&lt;/font&gt;" style="ellipse;whiteSpace=wrap;html=1;" parent="1" vertex="1">
          <mxGeometry x="610" y="540" width="120" height="80" as="geometry" />
        </mxCell>
        <mxCell id="oXrB27OB3NijfT-scLyy-22" value="&lt;font style=&quot;font-size: 20px&quot;&gt;舆论引导&lt;/font&gt;" style="ellipse;whiteSpace=wrap;html=1;" parent="1" vertex="1">
          <mxGeometry x="440" y="540" width="120" height="80" as="geometry" />
        </mxCell>
        <mxCell id="oXrB27OB3NijfT-scLyy-35" value="" style="endArrow=classic;startArrow=classic;html=1;rounded=0;fontSize=20;entryX=0;entryY=0.5;entryDx=0;entryDy=0;exitX=1;exitY=0.5;exitDx=0;exitDy=0;" parent="1" source="oXrB27OB3NijfT-scLyy-7" target="oXrB27OB3NijfT-scLyy-6" edge="1">
          <mxGeometry width="50" height="50" relative="1" as="geometry">
            <mxPoint x="360" y="413" as="sourcePoint" />
            <mxPoint x="540" y="373" as="targetPoint" />
          </mxGeometry>
        </mxCell>
        <mxCell id="oXrB27OB3NijfT-scLyy-36" value="" style="endArrow=classic;startArrow=classic;html=1;rounded=0;fontSize=20;exitX=1;exitY=0.5;exitDx=0;exitDy=0;entryX=0;entryY=0.5;entryDx=0;entryDy=0;" parent="1" edge="1">
          <mxGeometry width="50" height="50" relative="1" as="geometry">
            <mxPoint x="297" y="132" as="sourcePoint" />
            <mxPoint x="354" y="132" as="targetPoint" />
          </mxGeometry>
        </mxCell>
        <mxCell id="oXrB27OB3NijfT-scLyy-37" value="" style="endArrow=classic;startArrow=classic;html=1;rounded=0;fontSize=20;exitX=1;exitY=0.5;exitDx=0;exitDy=0;entryX=0;entryY=0.5;entryDx=0;entryDy=0;" parent="1" source="oXrB27OB3NijfT-scLyy-20" target="oXrB27OB3NijfT-scLyy-22" edge="1">
          <mxGeometry width="50" height="50" relative="1" as="geometry">
            <mxPoint x="490" y="440" as="sourcePoint" />
            <mxPoint x="540" y="390" as="targetPoint" />
          </mxGeometry>
        </mxCell>
        <mxCell id="oXrB27OB3NijfT-scLyy-38" value="" style="endArrow=none;html=1;rounded=0;fontSize=20;" parent="1" edge="1">
          <mxGeometry width="50" height="50" relative="1" as="geometry">
            <mxPoint x="19" y="520" as="sourcePoint" />
            <mxPoint x="819" y="520" as="targetPoint" />
          </mxGeometry>
        </mxCell>
        <mxCell id="oXrB27OB3NijfT-scLyy-43" value="" style="endArrow=none;html=1;rounded=0;fontSize=20;exitX=0.5;exitY=0;exitDx=0;exitDy=0;" parent="1" source="oXrB27OB3NijfT-scLyy-17" edge="1">
          <mxGeometry width="50" height="50" relative="1" as="geometry">
            <mxPoint x="490" y="440" as="sourcePoint" />
            <mxPoint x="18" y="520" as="targetPoint" />
          </mxGeometry>
        </mxCell>
        <mxCell id="oXrB27OB3NijfT-scLyy-44" value="" style="endArrow=none;html=1;rounded=0;fontSize=20;entryX=0.5;entryY=0;entryDx=0;entryDy=0;" parent="1" target="oXrB27OB3NijfT-scLyy-19" edge="1">
          <mxGeometry width="50" height="50" relative="1" as="geometry">
            <mxPoint x="174" y="520" as="sourcePoint" />
            <mxPoint x="28" y="530" as="targetPoint" />
          </mxGeometry>
        </mxCell>
        <mxCell id="oXrB27OB3NijfT-scLyy-45" value="" style="endArrow=none;html=1;rounded=0;fontSize=20;exitX=0.5;exitY=0;exitDx=0;exitDy=0;" parent="1" source="oXrB27OB3NijfT-scLyy-20" edge="1">
          <mxGeometry width="50" height="50" relative="1" as="geometry">
            <mxPoint x="490" y="440" as="sourcePoint" />
            <mxPoint x="340" y="520" as="targetPoint" />
          </mxGeometry>
        </mxCell>
        <mxCell id="oXrB27OB3NijfT-scLyy-46" value="" style="endArrow=none;html=1;rounded=0;fontSize=20;exitX=0.5;exitY=0;exitDx=0;exitDy=0;" parent="1" source="oXrB27OB3NijfT-scLyy-18" edge="1">
          <mxGeometry width="50" height="50" relative="1" as="geometry">
            <mxPoint x="490" y="440" as="sourcePoint" />
            <mxPoint x="820" y="520" as="targetPoint" />
          </mxGeometry>
        </mxCell>
        <mxCell id="oXrB27OB3NijfT-scLyy-47" value="" style="endArrow=none;html=1;rounded=0;fontSize=20;exitX=0.5;exitY=0;exitDx=0;exitDy=0;" parent="1" source="oXrB27OB3NijfT-scLyy-21" edge="1">
          <mxGeometry width="50" height="50" relative="1" as="geometry">
            <mxPoint x="490" y="440" as="sourcePoint" />
            <mxPoint x="670" y="520" as="targetPoint" />
          </mxGeometry>
        </mxCell>
        <mxCell id="oXrB27OB3NijfT-scLyy-48" value="" style="endArrow=none;html=1;rounded=0;fontSize=20;exitX=0.5;exitY=0;exitDx=0;exitDy=0;" parent="1" source="oXrB27OB3NijfT-scLyy-22" edge="1">
          <mxGeometry width="50" height="50" relative="1" as="geometry">
            <mxPoint x="490" y="440" as="sourcePoint" />
            <mxPoint x="500" y="520" as="targetPoint" />
          </mxGeometry>
        </mxCell>
        <mxCell id="oXrB27OB3NijfT-scLyy-49" value="" style="endArrow=classic;html=1;rounded=0;fontSize=20;" parent="1" edge="1">
          <mxGeometry width="50" height="50" relative="1" as="geometry">
            <mxPoint x="420" y="520" as="sourcePoint" />
            <mxPoint x="420" y="490" as="targetPoint" />
          </mxGeometry>
        </mxCell>
        <mxCell id="oXrB27OB3NijfT-scLyy-50" value="" style="endArrow=none;html=1;rounded=0;fontSize=20;" parent="1" edge="1">
          <mxGeometry width="50" height="50" relative="1" as="geometry">
            <mxPoint x="290" y="490" as="sourcePoint" />
            <mxPoint x="533" y="490" as="targetPoint" />
          </mxGeometry>
        </mxCell>
        <mxCell id="oXrB27OB3NijfT-scLyy-51" value="" style="endArrow=classic;html=1;rounded=0;fontSize=20;" parent="1" edge="1">
          <mxGeometry width="50" height="50" relative="1" as="geometry">
            <mxPoint x="290" y="490" as="sourcePoint" />
            <mxPoint x="290" y="470" as="targetPoint" />
          </mxGeometry>
        </mxCell>
        <mxCell id="oXrB27OB3NijfT-scLyy-52" value="" style="endArrow=classic;html=1;rounded=0;fontSize=20;entryX=0.5;entryY=1;entryDx=0;entryDy=0;" parent="1" target="oXrB27OB3NijfT-scLyy-8" edge="1">
          <mxGeometry width="50" height="50" relative="1" as="geometry">
            <mxPoint x="534" y="490" as="sourcePoint" />
            <mxPoint x="540" y="390" as="targetPoint" />
          </mxGeometry>
        </mxCell>
        <mxCell id="oXrB27OB3NijfT-scLyy-53" value="" style="endArrow=none;html=1;rounded=0;fontSize=20;" parent="1" edge="1">
          <mxGeometry width="50" height="50" relative="1" as="geometry">
            <mxPoint x="297" y="370" as="sourcePoint" />
            <mxPoint x="527" y="370" as="targetPoint" />
          </mxGeometry>
        </mxCell>
        <mxCell id="oXrB27OB3NijfT-scLyy-56" value="" style="endArrow=none;html=1;rounded=0;fontSize=20;" parent="1" edge="1">
          <mxGeometry width="50" height="50" relative="1" as="geometry">
            <mxPoint x="530" y="370" as="sourcePoint" />
            <mxPoint x="530" y="390" as="targetPoint" />
          </mxGeometry>
        </mxCell>
        <mxCell id="oXrB27OB3NijfT-scLyy-57" value="" style="endArrow=none;html=1;rounded=0;fontSize=20;exitX=0.5;exitY=0;exitDx=0;exitDy=0;" parent="1" source="oXrB27OB3NijfT-scLyy-9" edge="1">
          <mxGeometry width="50" height="50" relative="1" as="geometry">
            <mxPoint x="490" y="440" as="sourcePoint" />
            <mxPoint x="294" y="370" as="targetPoint" />
          </mxGeometry>
        </mxCell>
        <mxCell id="oXrB27OB3NijfT-scLyy-58" value="" style="endArrow=classic;html=1;rounded=0;fontSize=20;" parent="1" edge="1">
          <mxGeometry width="50" height="50" relative="1" as="geometry">
            <mxPoint x="410" y="370" as="sourcePoint" />
            <mxPoint x="410" y="350" as="targetPoint" />
          </mxGeometry>
        </mxCell>
        <mxCell id="oXrB27OB3NijfT-scLyy-59" value="" style="endArrow=none;html=1;rounded=0;fontSize=20;" parent="1" edge="1">
          <mxGeometry width="50" height="50" relative="1" as="geometry">
            <mxPoint x="295" y="350" as="sourcePoint" />
            <mxPoint x="535" y="350" as="targetPoint" />
          </mxGeometry>
        </mxCell>
        <mxCell id="oXrB27OB3NijfT-scLyy-60" value="" style="endArrow=classic;html=1;rounded=0;fontSize=20;entryX=0.5;entryY=1;entryDx=0;entryDy=0;" parent="1" target="oXrB27OB3NijfT-scLyy-6" edge="1">
          <mxGeometry width="50" height="50" relative="1" as="geometry">
            <mxPoint x="534" y="350" as="sourcePoint" />
            <mxPoint x="540" y="390" as="targetPoint" />
          </mxGeometry>
        </mxCell>
        <mxCell id="oXrB27OB3NijfT-scLyy-61" value="" style="endArrow=classic;html=1;rounded=0;fontSize=20;entryX=0.5;entryY=1;entryDx=0;entryDy=0;" parent="1" target="oXrB27OB3NijfT-scLyy-7" edge="1">
          <mxGeometry width="50" height="50" relative="1" as="geometry">
            <mxPoint x="294" y="350" as="sourcePoint" />
            <mxPoint x="540" y="390" as="targetPoint" />
          </mxGeometry>
        </mxCell>
        <mxCell id="oXrB27OB3NijfT-scLyy-62" value="" style="endArrow=none;html=1;rounded=0;fontSize=20;entryX=0.5;entryY=0;entryDx=0;entryDy=0;" parent="1" target="oXrB27OB3NijfT-scLyy-6" edge="1">
          <mxGeometry width="50" height="50" relative="1" as="geometry">
            <mxPoint x="534" y="220" as="sourcePoint" />
            <mxPoint x="540" y="390" as="targetPoint" />
          </mxGeometry>
        </mxCell>
        <mxCell id="oXrB27OB3NijfT-scLyy-64" value="" style="endArrow=none;html=1;rounded=0;fontSize=20;" parent="1" edge="1">
          <mxGeometry width="50" height="50" relative="1" as="geometry">
            <mxPoint x="294" y="220" as="sourcePoint" />
            <mxPoint x="534" y="220" as="targetPoint" />
          </mxGeometry>
        </mxCell>
        <mxCell id="oXrB27OB3NijfT-scLyy-65" value="" style="endArrow=none;html=1;rounded=0;fontSize=20;exitX=0.5;exitY=0;exitDx=0;exitDy=0;" parent="1" source="oXrB27OB3NijfT-scLyy-7" edge="1">
          <mxGeometry width="50" height="50" relative="1" as="geometry">
            <mxPoint x="490" y="440" as="sourcePoint" />
            <mxPoint x="294" y="220" as="targetPoint" />
          </mxGeometry>
        </mxCell>
        <mxCell id="oXrB27OB3NijfT-scLyy-66" value="" style="endArrow=classic;html=1;rounded=0;fontSize=20;" parent="1" edge="1">
          <mxGeometry width="50" height="50" relative="1" as="geometry">
            <mxPoint x="410" y="220" as="sourcePoint" />
            <mxPoint x="410" y="200" as="targetPoint" />
          </mxGeometry>
        </mxCell>
        <mxCell id="oXrB27OB3NijfT-scLyy-67" value="" style="endArrow=none;html=1;rounded=0;fontSize=20;" parent="1" edge="1">
          <mxGeometry width="50" height="50" relative="1" as="geometry">
            <mxPoint x="238" y="199" as="sourcePoint" />
            <mxPoint x="588" y="199" as="targetPoint" />
            <Array as="points">
              <mxPoint x="408" y="199" />
            </Array>
          </mxGeometry>
        </mxCell>
        <mxCell id="oXrB27OB3NijfT-scLyy-68" value="" style="endArrow=classic;html=1;rounded=0;fontSize=20;entryX=0.5;entryY=1;entryDx=0;entryDy=0;" parent="1" target="oXrB27OB3NijfT-scLyy-5" edge="1">
          <mxGeometry width="50" height="50" relative="1" as="geometry">
            <mxPoint x="590" y="200" as="sourcePoint" />
            <mxPoint x="540" y="260" as="targetPoint" />
          </mxGeometry>
        </mxCell>
        <mxCell id="oXrB27OB3NijfT-scLyy-69" value="" style="endArrow=classic;html=1;rounded=0;fontSize=20;" parent="1" edge="1">
          <mxGeometry width="50" height="50" relative="1" as="geometry">
            <mxPoint x="410" y="200" as="sourcePoint" />
            <mxPoint x="410" y="170" as="targetPoint" />
          </mxGeometry>
        </mxCell>
        <mxCell id="oXrB27OB3NijfT-scLyy-70" value="" style="endArrow=classic;html=1;rounded=0;fontSize=20;entryX=0.5;entryY=1;entryDx=0;entryDy=0;" parent="1" target="oXrB27OB3NijfT-scLyy-3" edge="1">
          <mxGeometry width="50" height="50" relative="1" as="geometry">
            <mxPoint x="237" y="200" as="sourcePoint" />
            <mxPoint x="540" y="260" as="targetPoint" />
          </mxGeometry>
        </mxCell>
        <mxCell id="UJMy9WGQaW9XjUwWdvuQ-21" value="" style="edgeStyle=orthogonalEdgeStyle;rounded=0;orthogonalLoop=1;jettySize=auto;html=1;" edge="1" parent="1" source="UJMy9WGQaW9XjUwWdvuQ-1" target="UJMy9WGQaW9XjUwWdvuQ-12">
          <mxGeometry relative="1" as="geometry" />
        </mxCell>
        <mxCell id="UJMy9WGQaW9XjUwWdvuQ-1" value="读取图片" style="rounded=0;whiteSpace=wrap;html=1;" vertex="1" parent="1">
          <mxGeometry x="280.5" y="743" width="120" height="60" as="geometry" />
        </mxCell>
        <mxCell id="UJMy9WGQaW9XjUwWdvuQ-5" value="" style="edgeStyle=orthogonalEdgeStyle;rounded=0;orthogonalLoop=1;jettySize=auto;html=1;" edge="1" parent="1" source="UJMy9WGQaW9XjUwWdvuQ-2" target="UJMy9WGQaW9XjUwWdvuQ-4">
          <mxGeometry relative="1" as="geometry" />
        </mxCell>
        <mxCell id="UJMy9WGQaW9XjUwWdvuQ-2" value="提取特征点" style="rounded=0;whiteSpace=wrap;html=1;gradientColor=none;" vertex="1" parent="1">
          <mxGeometry x="90" y="867" width="120" height="60" as="geometry" />
        </mxCell>
        <mxCell id="UJMy9WGQaW9XjUwWdvuQ-7" value="" style="edgeStyle=orthogonalEdgeStyle;rounded=0;orthogonalLoop=1;jettySize=auto;html=1;" edge="1" parent="1" source="UJMy9WGQaW9XjUwWdvuQ-4" target="UJMy9WGQaW9XjUwWdvuQ-6">
          <mxGeometry relative="1" as="geometry" />
        </mxCell>
        <mxCell id="UJMy9WGQaW9XjUwWdvuQ-4" value="特征匹配" style="whiteSpace=wrap;html=1;rounded=0;" vertex="1" parent="1">
          <mxGeometry x="90" y="1007" width="120" height="60" as="geometry" />
        </mxCell>
        <mxCell id="UJMy9WGQaW9XjUwWdvuQ-17" style="edgeStyle=orthogonalEdgeStyle;rounded=0;orthogonalLoop=1;jettySize=auto;html=1;entryX=0;entryY=0.5;entryDx=0;entryDy=0;" edge="1" parent="1" source="UJMy9WGQaW9XjUwWdvuQ-6" target="UJMy9WGQaW9XjUwWdvuQ-15">
          <mxGeometry relative="1" as="geometry" />
        </mxCell>
        <mxCell id="UJMy9WGQaW9XjUwWdvuQ-6" value="计算单应矩阵" style="whiteSpace=wrap;html=1;rounded=0;" vertex="1" parent="1">
          <mxGeometry x="90" y="1129" width="120" height="60" as="geometry" />
        </mxCell>
        <mxCell id="UJMy9WGQaW9XjUwWdvuQ-14" value="" style="edgeStyle=orthogonalEdgeStyle;rounded=0;orthogonalLoop=1;jettySize=auto;html=1;" edge="1" parent="1" source="UJMy9WGQaW9XjUwWdvuQ-12" target="UJMy9WGQaW9XjUwWdvuQ-2">
          <mxGeometry relative="1" as="geometry" />
        </mxCell>
        <mxCell id="UJMy9WGQaW9XjUwWdvuQ-16" value="" style="edgeStyle=orthogonalEdgeStyle;rounded=0;orthogonalLoop=1;jettySize=auto;html=1;" edge="1" parent="1" source="UJMy9WGQaW9XjUwWdvuQ-12" target="UJMy9WGQaW9XjUwWdvuQ-15">
          <mxGeometry relative="1" as="geometry" />
        </mxCell>
        <mxCell id="UJMy9WGQaW9XjUwWdvuQ-24" value="" style="edgeStyle=orthogonalEdgeStyle;rounded=0;orthogonalLoop=1;jettySize=auto;html=1;" edge="1" parent="1" source="UJMy9WGQaW9XjUwWdvuQ-12" target="UJMy9WGQaW9XjUwWdvuQ-2">
          <mxGeometry relative="1" as="geometry" />
        </mxCell>
        <mxCell id="UJMy9WGQaW9XjUwWdvuQ-12" value="单应矩阵是否为空" style="rhombus;whiteSpace=wrap;html=1;" vertex="1" parent="1">
          <mxGeometry x="280.5" y="862" width="119" height="70" as="geometry" />
        </mxCell>
        <mxCell id="UJMy9WGQaW9XjUwWdvuQ-19" value="" style="edgeStyle=orthogonalEdgeStyle;rounded=0;orthogonalLoop=1;jettySize=auto;html=1;" edge="1" parent="1" source="UJMy9WGQaW9XjUwWdvuQ-15" target="UJMy9WGQaW9XjUwWdvuQ-18">
          <mxGeometry relative="1" as="geometry" />
        </mxCell>
        <mxCell id="UJMy9WGQaW9XjUwWdvuQ-15" value="透视变换" style="rounded=0;whiteSpace=wrap;html=1;" vertex="1" parent="1">
          <mxGeometry x="280.5" y="1129" width="120" height="60" as="geometry" />
        </mxCell>
        <mxCell id="UJMy9WGQaW9XjUwWdvuQ-18" value="图像拼接" style="rounded=0;whiteSpace=wrap;html=1;" vertex="1" parent="1">
          <mxGeometry x="280.5" y="1244" width="120" height="60" as="geometry" />
        </mxCell>
        <mxCell id="UJMy9WGQaW9XjUwWdvuQ-23" value="Y" style="text;html=1;strokeColor=none;fillColor=none;align=center;verticalAlign=middle;whiteSpace=wrap;rounded=0;" vertex="1" parent="1">
          <mxGeometry x="221" y="865" width="60" height="30" as="geometry" />
        </mxCell>
        <mxCell id="UJMy9WGQaW9XjUwWdvuQ-25" value="N" style="text;html=1;strokeColor=none;fillColor=none;align=center;verticalAlign=middle;whiteSpace=wrap;rounded=0;" vertex="1" parent="1">
          <mxGeometry x="340.5" y="1007" width="60" height="30" as="geometry" />
        </mxCell>
        <mxCell id="UJMy9WGQaW9XjUwWdvuQ-28" value="" style="edgeStyle=orthogonalEdgeStyle;rounded=0;orthogonalLoop=1;jettySize=auto;html=1;" edge="1" parent="1" source="UJMy9WGQaW9XjUwWdvuQ-27" target="UJMy9WGQaW9XjUwWdvuQ-1">
          <mxGeometry relative="1" as="geometry" />
        </mxCell>
        <mxCell id="UJMy9WGQaW9XjUwWdvuQ-27" value="启动设备" style="rounded=1;whiteSpace=wrap;html=1;gradientColor=none;" vertex="1" parent="1">
          <mxGeometry x="90.5" y="743" width="120" height="60" as="geometry" />
        </mxCell>
      </root>
    </mxGraphModel>
  </diagram>
</mxfile>
